<mxfile host="65bd71144e">
    <diagram id="DfxWp1gTdo9Oa6G3D_A_" name="Page-1">
        <mxGraphModel dx="2902" dy="1859" grid="1" gridSize="10" guides="1" tooltips="1" connect="1" arrows="1" fold="1" page="1" pageScale="1" pageWidth="3000" pageHeight="2420" math="0" shadow="0">
            <root>
                <mxCell id="0"/>
                <mxCell id="1" parent="0"/>
                <mxCell id="2" value="" style="rounded=1;whiteSpace=wrap;html=1;fillColor=none;" parent="1" vertex="1">
                    <mxGeometry x="520" y="1045" width="570" height="340" as="geometry"/>
                </mxCell>
                <mxCell id="3" value="&lt;h1&gt;Data display&lt;/h1&gt;&lt;p&gt;The data Cosmos DB is being displayed into a web page.&lt;/p&gt;" style="text;html=1;strokeColor=none;fillColor=none;spacing=5;spacingTop=-20;whiteSpace=wrap;overflow=hidden;rounded=0;" parent="1" vertex="1">
                    <mxGeometry x="880" y="1065" width="182" height="110" as="geometry"/>
                </mxCell>
                <mxCell id="l8f-NhPuoc0gKvvGKslz-17" value="" style="rounded=1;whiteSpace=wrap;html=1;fillColor=none;" parent="1" vertex="1">
                    <mxGeometry x="520" y="670" width="570" height="340" as="geometry"/>
                </mxCell>
                <mxCell id="l8f-NhPuoc0gKvvGKslz-11" value="" style="rounded=1;whiteSpace=wrap;html=1;fillColor=none;" parent="1" vertex="1">
                    <mxGeometry x="520" y="256" width="570" height="384" as="geometry"/>
                </mxCell>
                <mxCell id="l8f-NhPuoc0gKvvGKslz-6" style="edgeStyle=orthogonalEdgeStyle;rounded=0;orthogonalLoop=1;jettySize=auto;html=1;" parent="1" source="l8f-NhPuoc0gKvvGKslz-1" edge="1">
                    <mxGeometry relative="1" as="geometry">
                        <mxPoint x="620" y="390" as="targetPoint"/>
                        <Array as="points">
                            <mxPoint x="810" y="390"/>
                        </Array>
                    </mxGeometry>
                </mxCell>
                <mxCell id="l8f-NhPuoc0gKvvGKslz-1" value="" style="shape=image;verticalLabelPosition=bottom;labelBackgroundColor=default;verticalAlign=top;aspect=fixed;imageAspect=0;image=https://www.theaudiodb.com/images/logo_new_12.png;imageBackground=#120730;" parent="1" vertex="1">
                    <mxGeometry x="584" y="50" width="418" height="170" as="geometry"/>
                </mxCell>
                <mxCell id="l8f-NhPuoc0gKvvGKslz-3" style="edgeStyle=orthogonalEdgeStyle;rounded=0;orthogonalLoop=1;jettySize=auto;html=1;entryX=0.5;entryY=1;entryDx=0;entryDy=0;" parent="1" target="l8f-NhPuoc0gKvvGKslz-1" edge="1">
                    <mxGeometry relative="1" as="geometry">
                        <Array as="points">
                            <mxPoint x="584" y="300"/>
                            <mxPoint x="790" y="300"/>
                            <mxPoint x="790" y="220"/>
                        </Array>
                        <mxPoint x="583.5" y="360" as="sourcePoint"/>
                    </mxGeometry>
                </mxCell>
                <mxCell id="l8f-NhPuoc0gKvvGKslz-5" value="API Request" style="text;html=1;strokeColor=none;fillColor=none;align=center;verticalAlign=middle;whiteSpace=wrap;rounded=0;" parent="1" vertex="1">
                    <mxGeometry x="617" y="270" width="60" height="30" as="geometry"/>
                </mxCell>
                <mxCell id="l8f-NhPuoc0gKvvGKslz-8" value="API Response" style="text;html=1;strokeColor=none;fillColor=none;align=center;verticalAlign=middle;whiteSpace=wrap;rounded=0;" parent="1" vertex="1">
                    <mxGeometry x="650" y="390" width="60" height="30" as="geometry"/>
                </mxCell>
                <mxCell id="l8f-NhPuoc0gKvvGKslz-10" value="Saves JSON to Blob" style="text;html=1;strokeColor=none;fillColor=none;align=center;verticalAlign=middle;whiteSpace=wrap;rounded=0;" parent="1" vertex="1">
                    <mxGeometry x="580" y="460" width="60" height="40" as="geometry"/>
                </mxCell>
                <mxCell id="l8f-NhPuoc0gKvvGKslz-12" value="&lt;h1&gt;Data fetch&lt;/h1&gt;&lt;p&gt;Data is retrieved periodically from the API and pushed to a ServiceBus queue&lt;/p&gt;" style="text;html=1;strokeColor=none;fillColor=none;spacing=5;spacingTop=-20;whiteSpace=wrap;overflow=hidden;rounded=0;" parent="1" vertex="1">
                    <mxGeometry x="870" y="270" width="182" height="100" as="geometry"/>
                </mxCell>
                <mxCell id="l8f-NhPuoc0gKvvGKslz-16" style="edgeStyle=orthogonalEdgeStyle;rounded=0;orthogonalLoop=1;jettySize=auto;html=1;" parent="1" target="l8f-NhPuoc0gKvvGKslz-15" edge="1">
                    <mxGeometry relative="1" as="geometry">
                        <mxPoint x="583" y="760" as="sourcePoint"/>
                    </mxGeometry>
                </mxCell>
                <mxCell id="6" style="edgeStyle=none;html=1;" parent="1" source="l8f-NhPuoc0gKvvGKslz-15" target="4" edge="1">
                    <mxGeometry relative="1" as="geometry"/>
                </mxCell>
                <mxCell id="l8f-NhPuoc0gKvvGKslz-15" value="Cosmos DB" style="aspect=fixed;html=1;points=[];align=center;image;fontSize=12;image=img/lib/azure2/databases/Azure_Cosmos_DB.svg;fillColor=none;" parent="1" vertex="1">
                    <mxGeometry x="551.5" y="900" width="64" height="64" as="geometry"/>
                </mxCell>
                <mxCell id="l8f-NhPuoc0gKvvGKslz-18" value="&lt;h1&gt;Data parsing&lt;/h1&gt;&lt;p&gt;The data from ServiceBus is being parsed into a series of collections or tables in Cosmos DB.&lt;/p&gt;" style="text;html=1;strokeColor=none;fillColor=none;spacing=5;spacingTop=-20;whiteSpace=wrap;overflow=hidden;rounded=0;" parent="1" vertex="1">
                    <mxGeometry x="870" y="690" width="182" height="110" as="geometry"/>
                </mxCell>
                <mxCell id="7" style="edgeStyle=none;html=1;" parent="1" source="4" target="5" edge="1">
                    <mxGeometry relative="1" as="geometry"/>
                </mxCell>
                <mxCell id="4" value="App Service&lt;br&gt;with Container" style="sketch=0;aspect=fixed;html=1;points=[];align=center;image;fontSize=12;image=img/lib/mscae/App_Services.svg;" parent="1" vertex="1">
                    <mxGeometry x="558.5" y="1085" width="50" height="50" as="geometry"/>
                </mxCell>
                <mxCell id="5" value="Browser" style="aspect=fixed;html=1;points=[];align=center;image;fontSize=12;image=img/lib/azure2/general/Browser.svg;" parent="1" vertex="1">
                    <mxGeometry x="550" y="1275" width="65" height="52" as="geometry"/>
                </mxCell>
                <mxCell id="8" value="Logic App" style="aspect=fixed;html=1;points=[];align=center;image;fontSize=12;image=img/lib/azure2/iot/Logic_Apps.svg;" parent="1" vertex="1">
                    <mxGeometry x="550.5" y="700" width="67" height="52" as="geometry"/>
                </mxCell>
                <mxCell id="11" style="edgeStyle=none;html=1;" parent="1" source="9" target="10" edge="1">
                    <mxGeometry relative="1" as="geometry"/>
                </mxCell>
                <mxCell id="9" value="Function App" style="aspect=fixed;html=1;points=[];align=center;image;fontSize=12;image=img/lib/azure2/compute/Function_Apps.svg;fillColor=none;" parent="1" vertex="1">
                    <mxGeometry x="558.5" y="360" width="48" height="42.35" as="geometry"/>
                </mxCell>
                <mxCell id="12" style="edgeStyle=none;html=1;entryX=0.47;entryY=0.019;entryDx=0;entryDy=0;entryPerimeter=0;" parent="1" source="10" target="8" edge="1">
                    <mxGeometry relative="1" as="geometry"/>
                </mxCell>
                <mxCell id="10" value="Service Bus Queue" style="sketch=0;aspect=fixed;html=1;points=[];align=center;image;fontSize=12;image=img/lib/mscae/Service_Bus.svg;" parent="1" vertex="1">
                    <mxGeometry x="557.5" y="540" width="50" height="50" as="geometry"/>
                </mxCell>
                <mxCell id="20" style="edgeStyle=none;html=1;" edge="1" parent="1" source="18" target="4">
                    <mxGeometry relative="1" as="geometry"/>
                </mxCell>
                <mxCell id="18" value="Azure Container&lt;br&gt;Registry" style="aspect=fixed;html=1;points=[];align=center;image;fontSize=12;image=img/lib/azure2/containers/Container_Registries.svg;" vertex="1" parent="1">
                    <mxGeometry x="751" y="1079.5" width="68" height="61" as="geometry"/>
                </mxCell>
                <mxCell id="21" value="" style="rounded=1;whiteSpace=wrap;html=1;fillColor=none;" vertex="1" parent="1">
                    <mxGeometry x="1140" y="670" width="570" height="340" as="geometry"/>
                </mxCell>
                <mxCell id="22" value="&lt;h1&gt;Code repository&lt;/h1&gt;&lt;p&gt;Everything is held As Code. Infrastructure, code, logic app, docker, etc.&lt;/p&gt;" style="text;html=1;strokeColor=none;fillColor=none;spacing=5;spacingTop=-20;whiteSpace=wrap;overflow=hidden;rounded=0;" vertex="1" parent="1">
                    <mxGeometry x="1480" y="690" width="202" height="110" as="geometry"/>
                </mxCell>
                <mxCell id="26" style="edgeStyle=none;html=1;entryX=0.456;entryY=0.025;entryDx=0;entryDy=0;entryPerimeter=0;" edge="1" parent="1" source="25" target="18">
                    <mxGeometry relative="1" as="geometry">
                        <Array as="points">
                            <mxPoint x="1285" y="1020"/>
                            <mxPoint x="1020" y="1020"/>
                            <mxPoint x="782" y="1020"/>
                        </Array>
                    </mxGeometry>
                </mxCell>
                <mxCell id="27" style="edgeStyle=none;html=1;" edge="1" parent="1" source="25" target="9">
                    <mxGeometry relative="1" as="geometry">
                        <Array as="points">
                            <mxPoint x="1290" y="380"/>
                        </Array>
                    </mxGeometry>
                </mxCell>
                <mxCell id="28" style="edgeStyle=none;html=1;" edge="1" parent="1" source="25" target="8">
                    <mxGeometry relative="1" as="geometry">
                        <Array as="points">
                            <mxPoint x="1280" y="650"/>
                            <mxPoint x="940" y="650"/>
                            <mxPoint x="590" y="650"/>
                        </Array>
                    </mxGeometry>
                </mxCell>
                <mxCell id="25" value="GitLab" style="shape=image;verticalLabelPosition=bottom;labelBackgroundColor=default;verticalAlign=top;aspect=fixed;imageAspect=0;image=data:image/svg+xml,PHN2ZyB4bWxucz0iaHR0cDovL3d3dy53My5vcmcvMjAwMC9zdmciIHZpZXdCb3g9IjAgMCAzODAgMzgwIj48ZGVmcz48c3R5bGU+LmNscy0xe2ZpbGw6I2UyNDMyOTt9LmNscy0ye2ZpbGw6I2ZjNmQyNjt9LmNscy0ze2ZpbGw6I2ZjYTMyNjt9PC9zdHlsZT48L2RlZnM+PGcgaWQ9IkxPR08iPjxwYXRoIGQ9Ik0yODIuODMsMTcwLjczbC0uMjctLjY5LTI2LjE0LTY4LjIyYTYuODEsNi44MSwwLDAsMC0yLjY5LTMuMjQsNyw3LDAsMCwwLTgsLjQzLDcsNywwLDAsMC0yLjMyLDMuNTJsLTE3LjY1LDU0SDE1NC4yOWwtMTcuNjUtNTRBNi44Niw2Ljg2LDAsMCwwLDEzNC4zMiw5OWE3LDcsMCwwLDAtOC0uNDMsNi44Nyw2Ljg3LDAsMCwwLTIuNjksMy4yNEw5Ny40NCwxNzBsLS4yNi42OWE0OC41NCw0OC41NCwwLDAsMCwxNi4xLDU2LjFsLjA5LjA3LjI0LjE3LDM5LjgyLDI5LjgyLDE5LjcsMTQuOTEsMTIsOS4wNmE4LjA3LDguMDcsMCwwLDAsOS43NiwwbDEyLTkuMDYsMTkuNy0xNC45MSw0MC4wNi0zMCwuMS0uMDhBNDguNTYsNDguNTYsMCwwLDAsMjgyLjgzLDE3MC43M1oiIGNsYXNzPSJjbHMtMSIvPjxwYXRoIGQ9Ik0yODIuODMsMTcwLjczbC0uMjctLjY5YTg4LjMsODguMywwLDAsMC0zNS4xNSwxNS44TDE5MCwyMjkuMjVjMTkuNTUsMTQuNzksMzYuNTcsMjcuNjQsMzYuNTcsMjcuNjRsNDAuMDYtMzAsLjEtLjA4QTQ4LjU2LDQ4LjU2LDAsMCwwLDI4Mi44MywxNzAuNzNaIiBjbGFzcz0iY2xzLTIiLz48cGF0aCBkPSJNMTUzLjQzLDI1Ni44OWwxOS43LDE0LjkxLDEyLDkuMDZhOC4wNyw4LjA3LDAsMCwwLDkuNzYsMGwxMi05LjA2LDE5LjctMTQuOTFTMjA5LjU1LDI0NCwxOTAsMjI5LjI1QzE3MC40NSwyNDQsMTUzLjQzLDI1Ni44OSwxNTMuNDMsMjU2Ljg5WiIgY2xhc3M9ImNscy0zIi8+PHBhdGggZD0iTTEzMi41OCwxODUuODRBODguMTksODguMTksMCwwLDAsOTcuNDQsMTcwbC0uMjYuNjlhNDguNTQsNDguNTQsMCwwLDAsMTYuMSw1Ni4xbC4wOS4wNy4yNC4xNywzOS44MiwyOS44MnMxNy0xMi44NSwzNi41Ny0yNy42NFoiIGNsYXNzPSJjbHMtMiIvPjwvZz48L3N2Zz4=;" vertex="1" parent="1">
                    <mxGeometry x="1250" y="710" width="70" height="70" as="geometry"/>
                </mxCell>
            </root>
        </mxGraphModel>
    </diagram>
</mxfile>